# xmcd
#
# Track frame offsets: 
#        150
#        18568
#        30712
#        48037
#        63904
#        78980
#        98844
#        131897
#        154870
#        167182
#        195303
#        216753
#        229278
#        246903
#        270043
#        288313
#        302341
#        321852
#
# Disc length: 4570 seconds
#
# Revision: 0
# Processed by: cddbd v1.5.2PL0 Copyright (c) Steve Scherf et al.
# Submitted via: ExactAudioCopyFreeDBPlugin 1.0
#
DISCID=ec11d812
DTITLE=Various Artist - 4th European Blues Challenge
DYEAR=2014
DGENRE=Sampler Blues
TTITLE0=Fenzl Experience - Texas Shuffle
TTITLE1=Fred and the Healers - Doyle The Hunter (Radio Edit)
TTITLE2=44 Blues - Idemo Doma (Let's Go Home)
TTITLE3=Big Creek Slim - Tear Me Down Again
TTITLE4=Ina Forsman and Helge Tallqvist Band - What Have I Done
TTITLE5=Shake Your Hips - My Little Pretty 50
TTITLE6=Mike Seeber Trio - Komm Herein
TTITLE7=T. Rogers - Sun On My Back
TTITLE8=Marco Pandolfi - Goin' Away Baby
TTITLE9=Lavrix Band - Long Road
TTITLE10=The John F. Klaver Band - Whells In Motion
TTITLE11=Pristine - She Won
TTITLE12=The Blues Nation - Dirty, Lowdown and Bad
TTITLE13=Bomb Lane Band - Smith and Wesson Blues
TTITLE14=A Contra Blues - Paraphilic Way Of Love
TTITLE15=The Hightones - Sugar Mama
TTITLE16=The Bacon Fats - Feels So Good
TTITLE17=Dave Migden and The Twisted Roots - Desert Inside
EXTD=
EXTT0=
EXTT1=
EXTT2=
EXTT3=
EXTT4=
EXTT5=
EXTT6=
EXTT7=
EXTT8=
EXTT9=
EXTT10=
EXTT11=
EXTT12=
EXTT13=
EXTT14=
EXTT15=
EXTT16=
EXTT17=
PLAYORDER=
